IKResults
version=1
nRows=7
nColumns=45
inDegrees=yes

Units are S.I. units (second, meters, Newtons, ...)
If the header above contains a line with 'inDegrees', this indicates whether rotational values are in degrees (yes) or radians (no).

endheader
time	pelvis_tilt	pelvis_list	pelvis_rotation	pelvis_tx	pelvis_ty	pelvis_tz	hip_flexion_r	hip_adduction_r	hip_rotation_r	knee_angle_r	knee_adduction_r	knee_angle_r_beta	ankle_angle_r	subtalar_angle_r	mtp_angle_r	hip_flexion_l	hip_adduction_l	hip_rotation_l	knee_angle_l	knee_adduction_l	knee_angle_l_beta	ankle_angle_l	subtalar_angle_l	mtp_angle_l	lumbar_extension	lumbar_bending	lumbar_rotation	thoracic_extension	thoracic_bending	thoracic_rotation	arm_flex_r	arm_add_r	arm_rot_r	elbow_flex_r	pro_sup_r	wrist_flex_r	wrist_dev_r	arm_flex_l	arm_add_l	arm_rot_l	elbow_flex_l	pro_sup_l	wrist_flex_l	wrist_dev_l
      1.26000000	      4.57377851	      1.40111654	      2.73242202	      0.57935542	      0.95357943	      0.49786917	    -17.81915771	      3.38955168	      0.49510112	     10.33951700	      0.00000001	      0.18045861	     18.59668107	      0.82060050	    -16.98407293	     20.23322746	      1.32164424	      6.25903504	      4.53852299	      0.00000000	      0.07921217	      5.52391164	    -12.75353359	    -12.87251380	    -12.06226502	     -0.09771569	      1.47188480	      0.00000000	      0.00000000	      0.00000000	     16.18084928	    -17.53929205	     -2.61217448	     57.27708338	     89.99911678	      0.00000000	      0.00000000	    -11.00072151	     -9.12288024	     12.70740552	     22.60939742	     89.99945425	      0.00000000	      0.00000000
      1.27242857	      4.89428479	      1.65639066	      2.68719192	      0.58049327	      0.95263149	      0.49613075	    -18.65486815	      2.93315939	     -0.45615764	     11.08844009	      0.00000001	      0.19352979	     18.78134328	      2.22265769	    -18.42807110	     20.14810606	      1.86589700	      5.84451399	      6.30334314	      0.00000000	      0.11001409	      5.55517409	    -13.44998939	    -13.09860943	    -12.28448785	     -0.33759011	      1.48463564	      0.00000000	      0.00000000	      0.00000000	     16.05713884	    -17.44494978	     -2.79835202	     57.20487895	     89.99911678	      0.00000000	      0.00000000	    -10.84633994	     -9.19164399	     13.48128242	     22.33310149	     89.99945425	      0.00000000	      0.00000000
      1.28485714	      4.95357405	      1.90196828	      2.39091926	      0.58238918	      0.95137166	      0.49516063	    -19.23407789	      2.50156064	     -0.47650908	     11.81259895	      0.00000001	      0.20616874	     18.98486444	      2.18726696	    -18.35436407	     20.23629350	      2.24602454	      5.05716621	      8.19729732	      0.00000000	      0.14306983	      5.61663273	    -13.50793946	    -12.88063580	    -12.11796243	     -0.71108259	      1.78190607	      0.00000000	      0.00000000	      0.00000000	     15.66350016	    -17.33983102	     -2.79676390	     57.02409709	     89.99911678	      0.00000000	      0.00000000	    -10.90858229	     -9.33387348	     13.44151509	     22.55777410	     89.99945425	      0.00000000	      0.00000000
      1.29728571	      5.47372905	      2.19242918	      1.91017194	      0.58454081	      0.95063633	      0.49367892	    -20.11078927	      1.81920488	     -1.24491111	     12.88789570	      0.00000001	      0.22493621	     18.97202414	      3.72599578	    -20.21140704	     19.60184395	      2.66390300	      4.44035225	      9.80810282	      0.00000000	      0.17118369	      5.08555988	    -14.03761816	    -13.23374839	    -12.42900081	     -1.04899591	      2.11975407	      0.00000000	      0.00000000	      0.00000000	     15.39427333	    -17.17870798	     -2.94471256	     56.71698140	     89.99911678	      0.00000000	      0.00000000	    -10.84375820	     -9.35251925	     13.87767183	     22.37608761	     89.99945425	      0.00000000	      0.00000000
      1.30971429	      5.70655167	      2.44452187	      1.40370293	      0.58727209	      0.94951490	      0.49242149	    -20.69205116	      1.19208992	     -1.65310199	     13.92834188	      0.00000001	      0.24309543	     18.71070181	      4.17525191	    -22.28751541	     19.20436200	      3.00174621	      3.81882256	     11.34934200	      0.00000000	      0.19808339	      4.27809312	    -14.36013912	    -14.00060987	    -12.33731395	     -1.40857326	      2.56590304	      0.00000000	      0.00000000	      0.00000000	     14.85303577	    -17.08250200	     -2.94652753	     56.40473519	     89.99911678	      0.00000000	      0.00000000	    -10.93016112	     -9.47228686	     14.11949380	     22.59764919	     89.99945425	      0.00000000	      0.00000000
      1.32214286	      5.79024167	      2.70259771	      0.96506826	      0.59037948	      0.94830139	      0.49137160	    -21.06541191	      0.62300999	     -1.81710257	     15.08449145	      0.00000001	      0.26327404	     18.69403715	      4.18970868	    -22.18130557	     18.90564102	      3.30810246	      3.10870622	     12.81121266	      0.00000000	      0.22359784	      3.77536843	    -14.02284117	    -13.68318991	    -12.02182396	     -1.82096673	      2.92056420	      0.00000000	      0.00000000	      0.00000000	     14.18018397	    -16.88215464	     -2.88145194	     55.93207961	     89.99911678	      0.00000000	      0.00000000	    -11.04929962	     -9.63987431	     13.98936662	     22.80357643	     89.99945425	      0.00000000	      0.00000000
      1.33457143	      6.31938126	      3.15918973	      0.18875958	      0.59372318	      0.94779842	      0.49005274	    -21.60270621	     -0.46613305	     -2.64030926	     16.76131831	      0.00000001	      0.29254019	     18.48474258	      5.79645369	    -24.36799267	     17.76001031	      3.77058998	      2.41190214	     13.56862985	      0.00000000	      0.23681727	      2.67812660	    -14.26627633	    -14.02842074	    -12.16374151	     -2.43938409	      3.39171145	      0.00000000	      0.00000000	      0.00000000	     13.71599127	    -16.71669698	     -2.62576382	     55.16040152	     89.99911678	      0.00000000	      0.00000000	    -11.08625237	     -9.64298001	     13.82717538	     22.78669200	     89.99945425	      0.00000000	      0.00000000
